<?xml version="1.0" encoding="utf-8"?>
<!-- Generator: Adobe Illustrator 25.4.6, SVG Export Plug-In . SVG Version: 6.00 Build 0)  -->
<svg version="1.1" id="레이어_1" xmlns="http://www.w3.org/2000/svg" xmlns:xlink="http://www.w3.org/1999/xlink" x="0px"
	 y="0px" viewBox="0 0 376.55 453.49" style="enable-background:new 0 0 376.55 453.49;" xml:space="preserve">
<style type="text/css">
	.st0{fill:#EDD9B7;}
</style>
<g>
	<g>
		<path class="st0" d="M250.15,418.75c-2.26-0.61-4.54-1.16-6.77-1.85c-12-3.7-21.25-10.88-27.25-21.99
			c-7.76-14.39-15.43-28.82-23.44-43.8c-3.96,7.53-7.84,14.58-11.42,21.77c-4.25,8.52-11.05,14.06-19.76,17.39
			c-26.17,10-56.19-8.2-59.86-36.27c-0.39-2.97-0.63-5.97-0.64-8.96c-0.04-63.74-0.05-127.48-0.01-191.22
			c0.02-23.99,15.38-42.2,38.94-45.91c11.61-1.83,22.47,0.81,31.92,7.81c33.84,25.05,53.88,41.13,87.62,66.3
			c5.34,3.98,7.42,9.43,5.86,15.86c-1.53,6.29-5.86,10.04-12.24,11.19c-4.91,0.89-8.98-1.07-12.83-3.95
			c-23.62-17.65-52.38-40.37-57.23-43.73c-9.22-6.87-18.44-13.72-27.62-20.63c-4.97-3.74-10.28-4.4-15.84-1.74
			c-5.57,2.66-8.36,7.29-8.58,13.46c-0.02,0.62-0.01,1.25-0.01,1.87c0,63.49,0,126.98,0,190.47c0,9.32,4.57,15.96,12.28,17.95
			c5.31,1.37,9.68-0.52,12.19-5.3c7.59-14.48,15.23-28.94,22.71-43.48c3.03-5.9,7.29-9.87,14.19-9.94
			c7.06-0.07,11.39,3.92,14.56,9.94c11.65,22.08,23.46,44.07,35.25,66.08c3.32,6.2,9.28,9.4,15.73,8.6
			c6.07-0.75,11.11-5.1,12.79-11.14c1.2-4.32,0.42-8.34-1.78-12.24c-11.54-20.44-23.12-40.85-34.41-61.43
			c-1.71-3.12-2.89-7.11-2.68-10.6c0.48-7.84,6.98-13.23,15-13.26c16.25-0.07,32.5-0.12,48.74,0.02c6.97,0.06,12.23-2.58,15.13-8.92
			c2.09-4.57,2.04-8.89,0.04-12.95c-0.69-1.39-19.39-16.78-20.52-18.11c-5.78-6.77-5.15-15.94,1.2-21.45
			c6.47-5.61,14.7-3.02,21.65,2.15c6.95,5.17,14.97,11.36,21.94,19.57c6.96,8.21,9.87,27.73,2.99,43.03
			c-7.81,17.37-21.9,26.05-40.88,26.6c-8.06,0.24-16.14,0.04-24.76,0.04c1.14,2.14,1.97,3.78,2.86,5.37
			c6.54,11.65,13.11,23.28,19.64,34.93c15.97,28.49,0.7,61.42-31.42,67.85c-0.45,0.09-0.86,0.41-1.29,0.63
			C258.15,418.75,254.15,418.75,250.15,418.75z"/>
		<path class="st0" d="M177.4,34.75c0.85,0.46,1.67,0.95,2.54,1.36c6.89,3.24,10.4,10.45,8.18,17.72
			c-2.62,8.58-5.44,17.11-8.49,25.55c-2.94,8.14-11.13,11.96-19.06,9.26c-7.59-2.57-11.75-10.74-9.26-18.78
			c2.58-8.34,5.46-16.58,8.25-24.85c1.83-5.41,5.97-8.38,11.09-10.26C172.9,34.75,175.15,34.75,177.4,34.75z"/>
		<path class="st0" d="M125.97,80.35c-0.24,6.61-4.26,12.27-10.39,14.33c-6.3,2.12-13.42,0.18-16.86-5.54
			c-5.21-8.65-10.15-17.5-14.55-26.58c-3.29-6.79,0.15-14.98,6.84-18.55c6.57-3.5,15.09-1.92,18.98,4.42
			c5.29,8.6,9.91,17.61,14.66,26.53C125.49,76.54,125.55,78.54,125.97,80.35z"/>
		<path class="st0" d="M87.46,120.27c0.01,11.6-9.81,19.15-19.32,15.65c-9.21-3.4-18.22-7.45-27.03-11.8
			c-6.99-3.45-9.42-11.95-6.23-19.02c3.18-7.04,11.15-10.8,18.39-7.97c8.92,3.49,17.7,7.4,26.35,11.52
			C84.9,111.16,87.31,115.9,87.46,120.27z"/>
		<path class="st0" d="M245.75,89.49c-0.07,5.76-2.07,9.79-5.99,12.75c-6.67,5.04-13.35,10.09-20.17,14.92
			c-7.3,5.18-16.23,3.72-21.22-3.22c-4.87-6.76-3.48-15.54,3.51-20.89c6.74-5.16,13.55-10.24,20.48-15.13
			c4.91-3.46,10.3-3.67,15.58-0.8C243.08,79.92,245.58,84.46,245.75,89.49z"/>
		<path class="st0" d="M87.47,180.16c-0.2,4.75-2.85,9.55-8.5,12.03c-7.99,3.5-16.09,6.79-24.3,9.73
			c-7.63,2.73-15.75-1.38-18.63-8.88c-2.82-7.34,0.38-15.59,7.75-18.81c7.88-3.45,15.85-6.73,23.95-9.59
			C77.55,161.16,87.46,168.44,87.47,180.16z"/>
	</g>
</g>
</svg>
