<svg id="Layer_1" data-name="Layer 1" xmlns="http://www.w3.org/2000/svg" viewBox="0 0 363.8 692.2"><defs><style>.cls-1,.cls-2,.cls-3{fill:none;stroke:#221e1f;}.cls-1,.cls-3{stroke-miterlimit:10;}.cls-1,.cls-2{stroke-width:0.5px;}.cls-2{stroke-linecap:round;stroke-linejoin:round;}.cls-3{stroke-width:0.25px;}</style></defs><path class="cls-1" d="M79.2,483.3c-.5,3.7-5,7.7-6.8,10.9s-4.4,7-6.1,10.7c-4,8.9-7.4,20.6-7.9,30.4s-2.7,17.3-5.3,25.2c-1,3-2.6,6.3-2.6,9.6.1,12.5,41,7,48.6,6,19.5-2.5,38.6-7.6,58.2-10.3s41.7-4.8,62.4-6.9c14.1-1.5,30.5-3.1,42.8-10.9"/><path class="cls-1" d="M81.2,495.7c-.1-7-3.2-12.3-3.5-19.1-.2-3.9-.2-7.5,1.7-11.1s5.4-6.3,6.6-10.3c2.2-7,.6-14.5,2.6-21.5s5.7-13.6,5.7-20.9"/><path class="cls-1" d="M99,424.4c-4-4.4-4.5-12-5.7-17.6s-1.1-11.5-.7-17.7-2.3-11.1-4.1-17C86,364,85.1,355,85,346.6c0-9.9,2-18,4.5-27.3,1.1-4.2,2.8-8.4,3.4-12.8s0-11.3,1.4-16.6"/><path class="cls-1" d="M262.1,548c-.8-4.5-1.9-9-3-13.3s-3.4-8.4-6.2-13.1-6.2-9.8-7.8-15.1c-.9-2.7-2.8-12.9-4.3-13.9"/><path class="cls-1" d="M233.8,504.2c1.4-11,14-15.6,11.7-28.2-1-5.2-5.4-5.9-7.5-10.1s-3.1-9.7-4.1-14.3c-3.6-16.4-10.2-32.2-14.6-48.5-3.8-14.2-6.1-28.4-9.5-42.6"/><path class="cls-1" d="M186.7,253.1c-.9,14.8,2.8,31,3,44.5,0,5.5.4,10.7,2.5,15.7s2.5,9.6,4,14.5c2,6.9,8.3,11.3,10.5,18s4.9,16-4,25.7"/><path class="cls-1" d="M202.4,244.8c6,6.6,14.5,10.3,23.5,8.1"/><path class="cls-1" d="M222.7,239.5c1.7,5.7,2.6,9.2,2.6,15.2"/><path class="cls-1" d="M93.2,194.6c-6.9.2-6.8,12.7-5.5,17.8,1.9,7.3,12.2,9.5,10.9,18.1"/><path class="cls-1" d="M103.3,192.7c-.5,8,2.6,16,3.8,23.6"/><path class="cls-1" d="M117.6,222.1c-3.2-.2-15.7,4.6-12.3,8.4"/><path class="cls-1" d="M226.5,558.4c-.2,5,6.1,11,8.8,14.8,5,7,10.3,14,14.1,21.8a65,65,0,0,1,5.1,16.2c.4,2.7,1.3,8.8.2,10.8"/><path class="cls-1" d="M261.7,548.8c1.6,7.5,5.8,15,8.5,22.3,2.1,5.5,3.8,10.3,6.8,15.4,1.9,3.2,4.3,6.1,6.3,9.3,5,7.8,11.5,14.1,18.2,20.4s15.3,12.8,26.1,13.2"/><path class="cls-1" d="M257,649.4c.9-.1,4.4-2.3,5.5-2.7,3.8-1.1,7.6-1.1,11.5-1.1,6.5,0,11.6,2.2,17.8,4.3,9.3,3.2,16.7,6.8,26.8,3.3,4.9-1.7,10-5.7,14.5-8.7s11.1-7.5,14.6-13c2-3.1,1.8-4.2-1.9-5.6a15.5,15.5,0,0,0-7.7-.7c-11.2,1.8-19.6,11.8-31,12.5-9.3.6-18.6-2.4-27.2-5.7-5.3-2-10.5-5.1-15.9-6.8-3.7-1.3-8.8-5.6-10.9-.5-1.3,3-.6,7-.5,10.1a41.8,41.8,0,0,0,2.1,9.3c1.8,6.5,5.5,12.9,9.1,18.9,2.4,4.1,6.1,11.3,9.4,16.8,4.4,1.7,14.1-5.7,15.5-10.7.3-.9-1.7-2.8-2.4-3.7a56.8,56.8,0,0,1-4.4-5.6,40,40,0,0,1-5-8.7,22.6,22.6,0,0,0-3-5.5"/><path class="cls-1" d="M52.4,574.4c0,7.6-.1,15.2-2.3,22.5-1.7,5.4-6.3,11.5-8.8,15.5"/><path class="cls-1" d="M82,579c-1,3-2.1,6.3-2.8,9.4s-2,5.9-2.5,8.7c-1,5.7-3.2,10.1-4,16-1.1,8.9,1.9,17.2,5.2,25.3s7.4,13.2,11.7,19.2"/><path class="cls-2" d="M41.8,649.2a33.5,33.5,0,0,0-.5,7.1c0,3.2-.3,6.3-.4,9.4-4.2,2.2-10.6.2-15-1,0-3.3.5-6.4.6-9.7.3-6.3-.3-12.8.8-19l1-1.2c3.5,3.7,8.3,5.9,11.7,9.8A106.4,106.4,0,0,1,50,657c2.1,3.4,3.8,7.5,6.7,10.3,7.5,7.2,19.9,7,29.9,7.4a122.1,122.1,0,0,0,16-.3c2.4-.3,4.7-1.1,4.9-3.6s-5.9-4.7-8.5-5.8-6.7-2.2-8.5-5.8l-.6.2c-6.3,1-12.4.1-18.6-.8a16,16,0,0,1-11.7-6.9c-4.5-6.4-8.3-13.3-12.7-20-2.5-3.9-5.4-7.8-6.9-12.2-1.1-2.8-.9-5.3-.7-8.1l1-1.2c-4.3.6-7.1,6.4-8.8,9.8s-2.8,4.7-3.4,7.3a53.9,53.9,0,0,0-.8,5.6"/><path class="cls-1" d="M126.5,114.2c.3,1.7.4,3.6.6,5.5"/><path class="cls-1" d="M162,93.6c1.9,5.3-.3,14.3,0,20.2l.3,7.9"/><path class="cls-1" d="M111.5,272.8c-5.3-9.1-.9-35.5,5.1-34.1"/><path class="cls-1" d="M121.9,121c-5.7,9.7-24.1,11.9-32.9,18.4s-12.1,15.5-17,26.3c-5.9,12.9-14.9,24.5-18.3,38.7a192.2,192.2,0,0,0-4,26c-.5,6.2-1.4,15.8,1.8,21,1.8,2.8,6.6,6,9.4,7.6,7.6,4.2,15.6,8.4,23.2,12.4a27.4,27.4,0,0,0,4.5,2"/><path class="cls-1" d="M116.3,238.7c-5.6-1-5.4-6.5-9.8-8.2s-11.9.9-15.5,1.9-9.1,4.2-13.3,7-9.6,8.9-15.1,9.2"/><path class="cls-1" d="M113.1,241c4,1.4,10.8.5,14.9.2l3.7-.2"/><path class="cls-1" d="M140.7,258.7l3-.2"/><path class="cls-1" d="M110.4,266.1c3.5-1.9,8.2-2.6,12.6-3.2"/><path class="cls-1" d="M114.3,272.7a26.5,26.5,0,0,0,2.5-8.5"/><path class="cls-1" d="M116.1,238.6a7.1,7.1,0,0,0,3,3.2"/><path class="cls-1" d="M143.7,258.4c4.8,1.7,13,.4,18-.3,2.4-.3,16.3,1.8,13-4.6"/><path class="cls-1" d="M169.3,252.3a8.4,8.4,0,0,1,5.6,1.6"/><path class="cls-1" d="M175.7,252.9c1.3-.4,1.7-2,1.8-3.3l-.4-1.1c-2.2-1-4.8-.5-6.4-2.4"/><path class="cls-1" d="M171.7,238.8c2.3,1.5,7.2.3,7.9,3.3s-.2,4.1-1.8,4.4"/><path class="cls-1" d="M165.1,243.6c1.1.1,2.5.4,3.4,0"/><path class="cls-1" d="M163.7,250.6a3,3,0,0,0,2.9.4"/><path class="cls-1" d="M162.5,235.3a5.4,5.4,0,0,0,5.1.2"/><path class="cls-1" d="M164.5,230.6c2.7,1.2,4.8,1.1,7.7,1.4a7.2,7.2,0,0,1,3.5,1.7c2.2,1.7,1.2,2.7,1.2,5.3"/><path class="cls-1" d="M207.3,251.8c.5,1.1-.1,3.9-.2,5.2a23.3,23.3,0,0,1-1.3,5.2c-1.1,3.2-1.8,6-5.3,7s-8.5.6-10.3-3.7c-.8-1.8-2.2-7-1.4-8.8"/><path class="cls-1" d="M232.3,241.1c-2.3,2.3-2.9,6.5-3.7,9.4s-4.4,6.1-7.7,7.9-7.4,2.4-11.1,4.1c-1.6.8-3.6,2.4-4.8,3"/><path class="cls-1" d="M205,251.6c-1,3.4-8.4,6.5-11.8,6.8s-5.1-2.6-6.1-5.9"/><path class="cls-1" d="M132.9,124.5c2.3.8,8.8-1.4,9.3-4.1"/><path class="cls-1" d="M221,197.4c-1.9-.2-3.1-1.5-4.7-2.1-.9-5-.5-5.3,4.1-6"/><path class="cls-1" d="M221.1,192.1c-1.7-.3-2.5,1-2.1,2.5a4.7,4.7,0,0,0,1.7.2"/><path class="cls-1" d="M223.4,190.3c7.1,3.1.5,7.2-.6,4.5"/><path class="cls-1" d="M219.7,199.4c2.1,2.6,8.6.5,10.5-1.3"/><path class="cls-1" d="M215.8,186.8c-3.6-.1-4.2,6.4-4.2,9"/><path class="cls-1" d="M217.8,183.4c-1.8-.8-4.7-1-6.2.2a3.4,3.4,0,0,0-1.4,3.3c.1.9.9,1.8.4,2.5"/><path class="cls-1" d="M227.8,189c-2.6.1-2.9-.9-4.1-3s-3-5.6-5.7-5.4"/><path class="cls-1" d="M229.8,192.7h1.3c.8,1.4.4,4.9-1.9,3.6"/><path class="cls-1" d="M232.7,198.1c.4,3.2,2,4.7-2.3,4.8-1.6.1-3.3.7-4.7.6"/><path class="cls-1" d="M206.1,205.1c1.6-1.5,2.8-4.3,5.2-4.1s3,1.9,4.5,2.8,6,2.9,6.4-.5"/><path class="cls-1" d="M208.5,190.5c-3.5,1-3,6.4-1,8.4"/><path class="cls-1" d="M205.2,189.9c-3,3.9-5,10.6-2.2,15.2"/><path class="cls-1" d="M208.3,209.5c2.4-.4,4.7-1.3,7.2-.3s2.2,1.8,3.5,2.8,5.5,3,7.1,1.4"/><path class="cls-1" d="M229.4,205.3c-1,2.7-3.9,5.4-7,5.4"/><path class="cls-1" d="M209.8,182.6c-.9,2.3-3.5,1.6-4.9,2.8s.5,3.1,2.2,3.6"/><path class="cls-1" d="M226.3,213.4c-1.8,1.6-1.8,1.8-4.3,2.1a12.9,12.9,0,0,1-4.4-.1,12.7,12.7,0,0,1-7.2-3.8"/><path class="cls-1" d="M241.8,220.2c1.4-1.6,3-.5,2.7,1.4s-2.3,2-4.1,2.4"/><path class="cls-1" d="M239.9,236.8c-2.2-.1-1.6-3.4-2.2-4.8s-3.8-3.6-5.2-5.6-.9-.7-.1-1.9a10,10,0,0,1,1.4-1.6c1.4-1.4,3.3-2.8,3.5-5.1"/><path class="cls-1" d="M244.3,213.2c-3.9-1.2-5.7-.2-5.8,3.7,0,1.9.9,7-1.2,7.9"/><path class="cls-1" d="M245.9,218.6c.4-1.1-.1-2.5.4-3.6s2.2-2.1,2.8-3.3c-.7,1-2,1.1-3.2,1.1"/><path class="cls-1" d="M243.9,235.7a10.1,10.1,0,0,1-3.1-10.3"/><path class="cls-1" d="M248,232.4c-2.5-.5-.2-3.9.6-4.8,2-2.6,4-6.2.2-8.8"/><path class="cls-1" d="M246.8,220.9c0,2.3.4,3.8-1.3,5.4s-3,2.2-2.7,4.1"/><path class="cls-1" d="M240.2,235.7c1.7.5,2.9,1.8,4.7,1.7s4.1-2.6,5-4.6"/><path class="cls-1" d="M244.3,211.5c-1.6-1.2-2.8-1.7-3.5-3.6a3.5,3.5,0,0,1-1.9,3c-2.5,1.6-3.5-.2-6-.4-4.3-.4-5.3,3.9-6,7.2"/><path class="cls-1" d="M230.6,235.1c-3.6,1.8-7.4-1.3-9.4-4.1s-1.4-2.9-1.3-5,.9-6.2,3.8-6.5,5,2.8,8,1.9c-2.7,2.8-4.2,6.5-2.9,10.4"/><path class="cls-1" d="M243,238.4c1.4,2,2.4,3.3,4.9,2.5-2.3,2.7-8.2,3.2-11.4,1.9s-3.4-6.3-3.4-10"/><path class="cls-1" d="M198.9,231.4c2.5,2.2,2.2,6,2,9s-2.2,9.1-3.5,7.6"/><path class="cls-1" d="M118.9,286.5l-.5.5c-3.4,4-7.3,8-11.7,10.7"/><path class="cls-1" d="M139.7,263.3a29,29,0,0,0,1.9-5.4"/><path class="cls-1" d="M131.7,282.7c-1.4,2.4-2.4,3.6-3.5,5.2-3.8,5.5-8.2,13-13.9,16.8a13,13,0,0,0-2.3-1.8c.4-2.4,3.9-4,5.6-5.6a64.1,64.1,0,0,0,7-8.6,38.8,38.8,0,0,0,3-4.8"/><path class="cls-1" d="M138.5,279.4c-2.6,4.8-5.8,9.6-8.8,14a69,69,0,0,1-8.2,9.7c-2.2,2.2-4,6,.5,6.2,1.3-4,4.7-7.3,7.6-10.3a55.5,55.5,0,0,0,9.7-13.8c1.2-2.6,2.3-5.4,3.6-8.2"/><path class="cls-1" d="M150,272.2c-3.1,6.7-6.7,13.3-9.8,19.9a195.3,195.3,0,0,1-9.3,17.5c-1.3,2.2-2.6,4.9-4.8,6.4,1.4,1.1,3.1,2.4,4.8,2.6.4-4.5,4.5-9.2,6.6-13.1s4.6-11.4,7-17.1,4.3-8.9,6.3-13.3,3-4.9,5-7.7,2.3-4.9,3.5-7.5"/><path class="cls-1" d="M156.7,269.2c-.3,4.4-3.3,9.7-4.9,13.8s-2.6,8.1-4.4,12.1c-2.5,5.6-5.8,13.3-9.8,18l2.9,1.4a5,5,0,0,0,2-3.1c3.1-1.2,6.9-10.4,8.1-13.4s2.2-9.1,3.5-13.5c2.4-8.2,6.3-17.7,11.1-24.9"/><path class="cls-1" d="M162,268.3c-1.3,11.2-4.1,22.7-7.1,33.5-.9,3.3-1.9,6.6-2.8,9.9s-.9,6.1-2.1,7.8-1.2,1.5-3.6,1.4c-.7-3.1,2.1-6.3,3.1-9s2-8.4,3.2-12.5,3.6-9.7,4.6-14.9,2.9-9.9,2.3-14.1"/><path class="cls-1" d="M170.1,260.5c.3,6-1.4,12.5-2,18.5s-.8,11.2-1.2,16.9c-.7,9.5-.1,19-.6,28.5a34,34,0,0,1-4.6.7c-1.3-3.2.7-9.5,1.1-13a106.9,106.9,0,0,0,.6-15c0-12.5-.6-25.3,1.8-37.5"/><path class="cls-1" d="M199.2,231.7c-6.8,2.5-6,14-1.2,18"/><path class="cls-1" d="M213.1,232.6c3,3.9,10.5,7.7,15.4,4.6"/><path class="cls-1" d="M217.2,227c-2,5.5-14.2,6.7-17.5,2.4"/><path class="cls-1" d="M217.8,227.9c-2.4-3.7-14.8-4.1-16,1.2"/><path class="cls-1" d="M198.6,233.7c1,3.4-1.3,7.7-1.2,11.4"/><path class="cls-1" d="M201.5,229.4c3.1,0,7.2.6,10.2-.3"/><path class="cls-1" d="M175.9,226.5c3.5,1.3,9.4-1,12.7-2.2s9.1-8.1,12.9-7.4"/><path class="cls-1" d="M182,217.7c3.3-2.5,15.1-5.2,18.3-1.4"/><path class="cls-1" d="M177.4,196.8c-7.1,1.9-5.4,9.2-7.6,14.8"/><path class="cls-1" d="M185.2,201.2c-1.1,3.6-4.2,4.9-7.3,6.4s-7.2,3.7-9,3.5"/><path class="cls-1" d="M170.7,203.5c-3.7,0-4.7.1-7.4-2.4a13.4,13.4,0,0,0-5.4-3.4"/><path class="cls-1" d="M170.1,195.7c-4.7,0-8.5-.7-12.5,1.7"/><path class="cls-1" d="M191.3,203.5c3.9,2,5.4,3,7.6,7.3"/><path class="cls-1" d="M180.6,208.2c5,3.5,12.2,3.2,18,3.2"/><path class="cls-1" d="M176.5,190.1c2,3.8,8.9,3.8,9.8,7.9s-6.9.2-9.4.7c.7-2.6-.7-4.8-.4-7.4"/><path class="cls-1" d="M187,198c.6-1.7,2.4-2.7,3.1-4.4s-.1-8-.5-11"/><path class="cls-1" d="M180.6,192.8c.6-3.1-.3-5.4,2.9-7.1s3.9-.7,5.8-1.4"/><path class="cls-1" d="M221.3,218c-4,.3-8-.6-12-.3s-5.5,1.2-8.4,1.5"/><path class="cls-1" d="M201.8,219.8c2.5.6,10,0,9.9,4.5,1.7-2,2.4-2.8,5-3.4s2.9,0,4-1.4"/><path class="cls-1" d="M183.8,235.2c.5,2,.1,4.5,1.4,6.4s2,1.9,2.7,3.3a8.6,8.6,0,0,1-.9,8.6"/><path class="cls-1" d="M181.1,231.1c0,5.9,5.1,7.6,9.9,7.6"/><path class="cls-1" d="M183.8,228.8c6.8-3,8.1,7.4,8.1,11.6"/><path class="cls-1" d="M189.6,236.4c-2.8-1.1-7.1-3.3-6.4-7"/><path class="cls-1" d="M180.3,199.1c-1.3,2.9-4.5,4.8-7,6.4"/><path class="cls-1" d="M184.9,205.5c2.4.1,5.7.5,7,2.4"/><path class="cls-1" d="M172.4,199.4c-1.9.9-4.4-.4-6.7-.3"/><path class="cls-1" d="M180.9,217.2c-5.7,1.8-14.1-3.5-18.4-6.4"/><path class="cls-1" d="M163.1,214.6c1.1,1.8,6,7.5,2.9,9.8,4.5-2.7,10.6-3.9,16-5.2"/><path class="cls-1" d="M157.9,204.7c0,5.4,0,9.2-3.4,13.5s-3.2,5.8-3.9,9.4"/><path class="cls-1" d="M155,204.4c-10-1.9-10.2,21.5-3.5,24.7"/><path class="cls-1" d="M155,205c.3,4.2-6.2,7.5-5.8,11.8V216"/><path class="cls-1" d="M143.4,218c-5.3,0-5.7,8-5.3,11.7s2.9,8.1,1,11.1c-.1.4,0,.5.5.2"/><path class="cls-1" d="M144.5,219.2c.1,5.9,3.6,9.4.1,14.8-1.3,1.9-3,3.7-4.4,5.6a1.3,1.3,0,0,0,1.4-.3"/><path class="cls-1" d="M143.4,220.4c-1.7,4.6-1.6,8.7-.9,13.6"/><path class="cls-1" d="M161.4,227c2.3.9,5,.1,7.2,1.3a39.2,39.2,0,0,1,3.2,2.5"/><path class="cls-1" d="M162,222.7c1.2,4.3-1.9,6.8-4.6,9.8s-4.2,6.9-5.6,8.2"/><path class="cls-1" d="M147.7,229.4c0,2-.6,5.3,0,7.2s4.1,4.7,3.5,8.2"/><path class="cls-1" d="M157.6,222.4c.3,2.5-2.9,4.4-4.4,6a16.5,16.5,0,0,0-3.4,6.2"/><path class="cls-1" d="M162,220.7c-1.7-1.6-4.1-3.6-6.4-3.5"/><path class="cls-1" d="M143.7,206.4c-2.1,1.1-3.8,2.6-5.8,3.7s-5.7,2.2-8.4,3.6-6,3.1-5.9,6.4"/><path class="cls-1" d="M137,190.7c-.8,2.9-.7,5.6-2.5,8.2s-4.9,4.1-4.5,7.6v-1"/><path class="cls-1" d="M133.5,186.4c-3.4,3.9-5.3,4.1-5.3,9.8,0,4,.9,7.4.9,11.4"/><path class="cls-1" d="M122.4,220.9c1-2.5-.1-5.8.4-8.5s3.2-4.6,5.7-6.9"/><path class="cls-1" d="M141.6,203.5c-2.9-.3-7-1-9.9,0"/><path class="cls-1" d="M143.7,174.7c-5.4-.1-8,3-7.6,8.3s3.2,7.6,5,11.6c1,2.2.8,4.4.8,6.9"/><path class="cls-1" d="M147.7,175.3c-2.4,4.5-3.6,6.7-3.8,12s.8,9.2-2.6,12.4"/><path class="cls-1" d="M143.4,176.2c-1.5,3.9-3.7,5.2-3.5,9.6"/><path class="cls-1" d="M134.1,187.5c0,3.2-3.7,7.6-5,10.8"/><path class="cls-1" d="M142.2,204.7c-3.7,0-8.4-.2-11,3-.4.1-.5,0-.3-.4"/><path class="cls-1" d="M148.6,169.2c-3.6,6.2,1.7,8.2,4.6,13.4,1.9,3.5,1.2,8.6-1.4,12.1,1.4-6.3,9.6-.3,12.2-.8"/><path class="cls-1" d="M132.3,185.5c-4.5-.3-9.3,2-13.4,3.6s-5.3,4.8-7.5,7.7"/><path class="cls-1" d="M131.7,180c-9-.6-12.1,6.1-17.4,11.3"/><path class="cls-1" d="M135.8,155.8c-6.2-4.4-15.9,3.4-17.3,9.7a57.4,57.4,0,0,0-.7,9.3c-.2,3.7-.9,6.9-1.3,10.5.3.2.6.1,1-.4"/><path class="cls-1" d="M137,157.6c0,4.2-.4,4.1-2.8,7s-4.7,5.3-7.1,8-9.7,7.5-11.4,12.8V184"/><path class="cls-1" d="M135.2,158.5c-3.8,2-6.2,1.7-9.3,5.2s-2.2,3.9-3.2,6.1"/><path class="cls-1" d="M117.8,165.1c-12.8-.2-9.4,19.4-18.4,24.3l2.1-1.3"/><path class="cls-1" d="M99.5,189c6.8-.1,14.3-6.6,18.3-11.4"/><path class="cls-1" d="M116.3,171c-1.5,4-5.6,6.6-6.9,10.7"/><path class="cls-1" d="M111.4,156.1c-11.7,0-19,3.6-27.9,10.5"/><path class="cls-1" d="M84.4,166c2.8-5.3,1.5-10.3,2-16,.9-10.8,10.9-9,19.2-9"/><path class="cls-1" d="M105.3,148.9c-2.4.2-4.9-1.1-7.5-.9s-3.9,1.8-6.2,3.2"/><path class="cls-1" d="M116.9,161.4c-3.6-.7-6.1-7.4-6.9-10.6s-1.4-13.1-5.3-15.6"/><path class="cls-1" d="M104.4,135.8c3.6,2.9,7.2,4.1,11.7,5.1s8.8.3,12.9,1.3,8.7,5.2,11.1,8.6,1.5,5.3,1.5,8.5"/><path class="cls-1" d="M128,153.5c-3.4,1-5.5-2.7-7.7-4.6a7.9,7.9,0,0,0-4.8-2.4"/><path class="cls-1" d="M105.3,175.3c-6,.7-10-7.1-10.8-11.6"/><path class="cls-1" d="M114.6,164.3c-4.8,0-8.9-1.5-13.6-1.8-2.8-.1-5.2.8-7.9,1.2"/><path class="cls-1" d="M106.2,171c-1-2.4-3.1-4.6-5.9-4.4"/><path class="cls-1" d="M113.3,198.9c.9,7,3.4,12.5,5.4,19,.6,2,1.3,4.1.8,6.2s-4.4,10.1-8.1,10.8"/><path class="cls-1" d="M119.8,140.7c-2.1-3.1-2.4-9.3-1.1-12.7s6.6-5,9.8-8.2"/><path class="cls-1" d="M140.5,141.3c2-4.1.3-8.7-2.7-12s-8.9-4.3-8.4-9.8"/><path class="cls-1" d="M130.6,139.9c-1.3-3.5-3-5.6-3.3-9.5a18.4,18.4,0,0,1,.4-6.2"/><path class="cls-1" d="M144.2,153.2c-.1-5.2,10.3-7.3,14-7.2"/><path class="cls-1" d="M143.4,158.5c1.6,4.1,1.9,5.8,5.4,8.2,3.3-4.4,1.7-11.4,5.3-15.2"/><path class="cls-1" d="M147.1,144.5c3.1-5.9-1.8-18.7-5.8-23.2"/><path class="cls-1" d="M183.5,177.6c1.1,1.5.9,4.8-1.5,5"/><path class="cls-1" d="M184.6,175.9c4.8-.5,5.9,7.3,1.5,5.8"/><path class="cls-1" d="M182.6,175c-3.9-.7-1.5,5.7-2.9,7.6"/><path class="cls-1" d="M176.5,177.1c0,2.4-1.5,6.9,1.4,8.2a4,4,0,0,1,0,1.1"/><path class="cls-1" d="M186.7,174.2c1.3.8,3.3.8,4.5,1.7s.8,1.6,1.4,2a10.7,10.7,0,0,0,2.5,1.6,8,8,0,0,0-3.2,4.2"/><path class="cls-1" d="M186.7,172.7c-4.6-3-7.7-.7-10.2,2.6"/><path class="cls-1" d="M171,178.8c.4,2.1.2,4.7,1.1,6.4s3.9,2.8,5.8,4.1"/><path class="cls-1" d="M191.6,187.2a7.6,7.6,0,0,0,6.1-7.8"/><path class="cls-1" d="M200.3,178.5c-.3,3.4,1.3,5.9-1.5,8.4s-5,3.5-6.9,3.8"/><path class="cls-1" d="M191,193.6c2.8-2.1,6.5,0,8.2-1.5s1.4-4.9.8-6"/><path class="cls-1" d="M197.4,194.2c-.8,2.1-2.6,3.1-3.3,5s-.1,2.7-.3,3.8c-2.1-.9-5.7-1.4-6.3-3.9"/><path class="cls-1" d="M194.8,194.2c-2,1.3-6.8,2.2-7.3,4.9"/><path class="cls-1" d="M174.5,194.2c0-2.5-2.5-3.1-3.8-4.5s-1.8-3.4-2-6.3-.9-4.8-.1-7,6.6-4.5,9.9-4.3"/><path class="cls-1" d="M175,171.5c2.5-4.9,7.6-2.2,11.7-1.7s4.5-.5,6.9-2v2.9"/><path class="cls-1" d="M186.7,171.8c2.1-.1,4.7-.7,6.9.1s4.5,4.5,7.6,5.7"/><path class="cls-1" d="M167.8,175c-3.3.4-3.2,4.4-3.2,7.2s.7,6-3.2,7.6c4.5,1.3,6.8,3.8,10.4,6.2"/><path class="cls-1" d="M170.1,161.1c-1.7,0-4.4-.9-4.7,1.1"/><path class="cls-1" d="M174.7,160.5c1.6,4.2-4.1,2.4-6.6,3.2"/><path class="cls-1" d="M166,159.6c-2,0-7.1-.2-6.7,2.9"/><path class="cls-1" d="M179.4,160.8c2.1,5.5-4,5.3-8,5.8-2.4.2-3,.3-5.4-.6s-2.6-1.1-4.3-.9a2,2,0,0,1,.3-1.1"/><path class="cls-1" d="M159.1,158.7c-4.6-.8-3,4.4-6.2,4.8,2.2.2,3,1.8,4.5,2.8a12,12,0,0,0,7.5,2"/><path class="cls-1" d="M180.3,159.6c2,1.3,4,4.6,5.7,5.2-2.1,1.2-3.6,2.4-6.3,2.1"/><path class="cls-1" d="M151.5,166.9c0,5.7.9,7,6.5,7,2.6,0,3.4-.4,4.8,1.7A12.5,12.5,0,0,1,164,181v-2.2"/><path class="cls-1" d="M159.6,171.8c-2.2-.9-5-2.1-4.9-4.9"/><path class="cls-1" d="M154.4,173.9c2.3,3.2,2.1,5.9,3.4,9.1.6,1.4,1.3,2.8,3,2.8"/><path class="cls-1" d="M174.7,171c-3.5-1.3-4.9-3.1-9-2.9"/><path class="cls-1" d="M155.6,153.2c1.3,4.4,6,6.1,9.9,6.1,5.5.1,11.1.1,16.2,1.8"/><path class="cls-1" d="M187.8,144.8c0,3.3.7,6.8.6,9.9s-1.6,4.6-4.4,6.7"/><path class="cls-1" d="M176.5,144.8c-5.3-1.6-7.9-1.3-12.2,1.6-1.5,1-3,2.6-4.9,3.1s-4.8.2-3.8-.6"/><path class="cls-1" d="M165.2,149.4c1.9-.6,3.7.2,5.7,0s2.2-.8,3.8-2.4,6.4-6.1,9.1-1.6"/><path class="cls-1" d="M158.8,152.6c.9,2.8,6.2,2.7,8.3,1.5s1.5-1.9,2.4-2.6"/><path class="cls-1" d="M183.8,148.9c-1.8,2.1-2.9,4.7-4.2,7.2-3.7-1.7-7.7,1.2-11-.3"/><path class="cls-1" d="M171.3,142.2c1.8-.2,3-1.5,4.7-1.8s3,0,4.6-.5a56.5,56.5,0,0,0,5.7-2.3c.1,2.7,1.2,8.4-2,9.3-.3-.1-.3-.3-.3-.6"/><path class="cls-1" d="M170.7,140.1c-1.5,2.5-9.7,2.3-12.6,2.1a13.4,13.4,0,0,0,1,5.5"/><path class="cls-1" d="M236.4,209.9s6-4.7,7.7-4.5c0,0-1.7-1.9.2-3.4"/><path class="cls-1" d="M235.6,197.1a6.7,6.7,0,0,0,3.9,4.1,20.9,20.9,0,0,0,6.2,1.1l3.1,1.2s-4.1-1.9-4.3-5.4"/><path class="cls-1" d="M245.5,195.4s.2,3.1-3.3,2.3-4.1-2.7-4.1-2.7"/><path class="cls-1" d="M231.7,190.9s3.9,2.5,5.8,2.3,1.4,2.8-.2,3.1l-4.2,1.2"/><path class="cls-1" d="M237.1,192.5s3.1-2.4,10.7-.6c0,0-4.3-4.5-17.8-1.2,0,0-2.2-3.3,4.4-3.9,4.3-.3,9.3,2.6,9.3,2.6"/><path class="cls-1" d="M226.8,186.8a28.2,28.2,0,0,0,5.2-11.3s-15.3-6.3-21.8,2.3a13.7,13.7,0,0,0-2.2,5.1"/><path class="cls-1" d="M239.7,186.5s-3.2-5.7-5.1-6.4a5.7,5.7,0,0,0,1.5,5.7"/><path class="cls-1" d="M237.7,182s.7-4.4,3-4.1,2.8,4.7,3.9,6a19.9,19.9,0,0,1,3,4.8c.1.7-2.7,1.1-2.7,1.1"/><path class="cls-1" d="M240.7,177.8s.2-6.3-1.9-8.2a52.7,52.7,0,0,0-5.9-4.2,5.5,5.5,0,0,1-5.3,3.1c-4,0-4.5.3-4.5,2s1.1,2.2,1.1,2.2"/><path class="cls-1" d="M230.4,186.1s4.7-8.7,5.1-12.5.7-2.8.7-2.8-1.3.9-4.8-.3-3-2-5.8-2"/><path class="cls-1" d="M213.7,174.4s-.9-5.2,7-6.9c0,0-.8,2.3,2.2,2.4"/><path class="cls-1" d="M201.9,178.2s6-1.6,7.9-3.5,1.7-3.6,1.6-6.5c-.8,2.2-1,4.4-2.4,3.5s-1.6.4-5.5-.3-8.6-8.1-8.6-8.1a16.8,16.8,0,0,1-10.7-1.2"/><path class="cls-1" d="M195.5,164.4s4.2,2.2,7.6,1.6a15.5,15.5,0,0,0,4.5-1.3s0,2.5,3.2,2.6"/><path class="cls-1" d="M203.1,166a11.2,11.2,0,0,0,6.4-6.1,8.2,8.2,0,0,1-5.5-1,12.5,12.5,0,0,0-7.2-2.3c-2.4,0-5.6.6-5.8-1.5a18.3,18.3,0,0,0-.4-3.2l-2.2,2.8"/><path class="cls-1" d="M189.7,157.9s-1.1,4.2,4.7,5.4"/><path class="cls-1" d="M232.9,165.6s-5-.2-6-4.7c0,0-7.7-.1-9.6-3.2,0,0-3.8,2.8-8,1.6-5.8-1.1-5.1-4-5.1-4-2.4.4-3.4-.8-5.8-.9s-7.8-2.5-7.8-2.5"/><path class="cls-1" d="M198.4,154.4a4.8,4.8,0,0,0,4.7-2.2c2.5,2.9,7.4,1.6,7.4,1.6a4.2,4.2,0,0,0,6.1,2.2c2.8,2.6,7.3,1.2,7.3,1.2a2.4,2.4,0,0,0,2.1,2.4"/><path class="cls-1" d="M219.9,157.3s-1.6-4.8,2.7-9.7c0,0,4.3,5.3,3.4,10.1"/><path class="cls-1" d="M231.7,164.7s.6-2.5,4.7-3.5c0,0-.6.3-4.1-1.9s-5.7-2.7-6.4,1"/><path class="cls-1" d="M226.2,153.7a17.1,17.1,0,0,1,8.9-3.4s1.4,4.1-1.6,9.5"/><path class="cls-1" d="M210.2,151.9s-4.1-2.2-5.1-5.2c0,0-3.3,2.6-6.8,1.6l-3.5-1s-.4,4.2-5.2,2.7"/><path class="cls-1" d="M213.1,154.7a4.8,4.8,0,0,0,4.7-4.7,9.7,9.7,0,0,1-6.7-1.6c-2.9-2.1-3.5-1.7-5.8-4.9,0,0-1.3,2.8-5.8,3.3"/><path class="cls-1" d="M206.7,144.2a4.9,4.9,0,0,0,3.8-.6s8.1,9,8.9,9.6"/><path class="cls-1" d="M196.1,147.3s6.8.1,9.6-5.1,4.8-4.7,4.8-4.7-4.5,1.2-5.5-.8"/><path class="cls-1" d="M188.3,138.6s-.2,1.5,3.9,2.6,6.1-5.1,9.4-7.6a5.5,5.5,0,0,1,6.4-.3c-2.6,1.8-3.5,4.5-4.6,5.5s-2.5,3.8-6.1,6.6-8.7-.5-8.7-.5"/><path class="cls-1" d="M182.9,138a9.9,9.9,0,0,1-1.3-6.6c.7-3.5,1.4-5.2-.9-7.2,0,0,4.1-1.1,5.7,3.7s6.2,6.7,1.1,10.7"/><path class="cls-1" d="M186.1,126.5a8.3,8.3,0,0,1,4.2-.9c2.5.2,4.4,1.8,7.3-.1s-1.6-3.1-2.5-3.1a2.3,2.3,0,0,1-1.9,1.2c-1.4.1-4.5-1.2-7.6-1.6a1.8,1.8,0,0,1-1.8,2.3"/><path class="cls-1" d="M193.4,126.5a11.5,11.5,0,0,0,5.9,1.7,4.1,4.1,0,0,0,.5,2.5,3.2,3.2,0,0,0,2.6,1.7"/><path class="cls-1" d="M200.5,131.3a9.3,9.3,0,0,0,4.5-5.5s-4.8.8-6.9-.9"/><path class="cls-1" d="M203.7,127.9a6.7,6.7,0,0,0,4.9,1.1s-2.2,3.3-3.6,3.6"/><path class="cls-1" d="M148.2,134.9s2.1,2.8,5.3,2.5,5.3-.4,6,1"/><path class="cls-1" d="M157.6,141.7a11.4,11.4,0,0,1,3.5-4.9,14.9,14.9,0,0,0,4.6-5.8s2.1,5.4,4.1,6.5,4.1,2.2,4.1,2.2"/><path class="cls-1" d="M177.4,139.9s-3.4-8.8-1.3-15.3a57,57,0,0,1,5.6,3.1"/><path class="cls-1" d="M146.7,130.6s1.6-1.6,1.3-5.1c0,0,5.1,2.4,7.3,2.4"/><path class="cls-1" d="M151.8,136.8s-2.8-5.4.4-7,7-3,7.3-4.6a12.5,12.5,0,0,0,4.4,1.9c2,.3,6.5-1.6,6.5-1.6s.1,6.7,5.4,8"/><path class="cls-1" d="M149.8,126.2s5.6-.9,5.5-4.2a11.2,11.2,0,0,0,8,1.1,24.8,24.8,0,0,0,6.4-2.1s0,3,2.7,3.5a9.6,9.6,0,0,0,3.7.1"/><path class="cls-1" d="M114.9,38.8s-7.2,5.8-8,8-4.6,11-4.6,16.2.4,12,0,15.5,1,11.1,2.9,15.3,7.4,13,10.6,15.4,3.9,5.2,9,4.2,19.1-4.4,24.8-12"/><path class="cls-1" d="M161,72.3s.4,10.5-1.2,15.7-3.3,7.4-3.3,7.4"/><path class="cls-1" d="M125.2,31.1s-2.2-2.9-8.4.5S106,37.5,102.5,45s-7.4,20-9.1,24.6-4.1,15.9-.8,22.9,5.4,16.3,18,17.8c0,0-5.8-1.7-8.1-6.4s-5.6-10.8-5.3-19.2a68,68,0,0,1,2.6-15.3,103.5,103.5,0,0,1,2.1,11.3"/><path class="cls-1" d="M116.2,39.8s-1.5-4.9.8-4.5,4.7,3.7,5.8,9.3,8.9,28.1,12.6,33.5,9.7,12.3,12.4,13c0,0-9.3-8.3-10.8-15.1a52.4,52.4,0,0,0-2.9-9.5"/><path class="cls-1" d="M123.8,32.4s3.7-5.4,7.5-3.1,10.9,2.7,13.6,17.1,6.8,25.4,7,28.8,5.4,17.9-3.5,32.8c0,0,3.8-6.9,0-22.1-.8-3.1-3.9-16.3-6.4-22.1s-7.4-17.2-8.1-21.3"/><path class="cls-1" d="M146.1,50.8s10.1,14,15.7,21,8.9,15.1,6.2,18.4c0,0,2.3-4.9,4.6-7.2s2.3-6,2.7-8.5-.6-9.5-.4-13-2.1-11.4-2.1-11.4"/><path class="cls-1" d="M126.3,28.2s3.7-3.7,8.5-3.3a68,68,0,0,1,12.8,2.5c1.8.6,15.1,7.2,17.5,11.2s5.6,7.8,5.6,7.8"/><path class="cls-1" d="M167,93.8s.8,3.1.4,4.3-2.9,3.7-2.9,3.7"/><path class="cls-1" d="M162.5,107.6a36.3,36.3,0,0,0,7,5.4c2.7,1.6,8.9,7,8.9,10.9"/><path class="cls-1" d="M164.7,114.2s5.8,2.3,6.8,7"/><path class="cls-1" d="M162.7,75.4s.4,2.9-.3,4.1,1.9,1.4,3.6-.8"/><path class="cls-1" d="M167.6,87.6s1.3-1.9,0-3.4-2.7,1.5-2.7,1.5.6-1-2.5-.6-.6,2.9-.6,2.9-2.4.8-2,2,1.6,2.7,3.1,1.9a1.9,1.9,0,0,0,2.4,1.4c1.9-.6,1.3-2.9,1.3-2.9S170.5,90.2,167.6,87.6Z"/><path class="cls-1" d="M166,88.2s-1.9-.4-2.3-.9,1.4,1.9.6,3.1"/><path class="cls-3" d="M110.8,34.7a8.7,8.7,0,0,0-5.4,2c-2.5,2.1-9.3,7.5-13.4,7.7"/><path class="cls-3" d="M118.6,29.9s-2-2.1-6.2-1.4-9.7,6.4-13.6,8.6S85.6,46.8,80.2,45"/><path class="cls-3" d="M98.4,74.9s2.1,19.5,4.7,23.8,6.2,8.7,9.6,10.6,4.9,3.1,5.1,4.7"/><path class="cls-1" d="M156.9,65.7a18.8,18.8,0,0,0-.2,9.5c1.4,4.9,2.7,9.5,1.8,12.6s-5.1,6.4-4.5,12.2a15.5,15.5,0,0,0,4.1,9.2"/><path class="cls-1" d="M174.9,79.5s4.7,17.1-5.4,33.5"/><path class="cls-1" d="M172.4,89.9s.9,16-5.8,20.9"/><path class="cls-1" d="M165.4,49.5A53.7,53.7,0,0,1,170,67.9c.5,9.5.2,11.7.2,11.7"/><path class="cls-1" d="M155.4,48.2s9.5,7.3,12,18.6"/><path class="cls-1" d="M147.1,233.3s-4.9,18-5,19.9-1.2,7.6-1.2,7.6"/><path class="cls-1" d="M137.5,227.8s-3.7,3.2-3.4,6.5,2.7,7.1,2.1,8.9,1.8-2.1,3.1-3.4"/><path class="cls-1" d="M134.4,237.4s-5.6,5.3-7,11.4-5.8,16.2-6.6,23"/><path class="cls-1" d="M158.8,260s-4.5,9.5-9.8,12.8-10.9,8-19.7,10.6-12.2,4.1-19.9,4.8a230.3,230.3,0,0,1-23.9,1.5c-6.5-.2-18.4-2.3-26.1-2.8,0,0-1.1-5.5,3.7-8.4s6.7-4.5,14.4-4.4a134.1,134.1,0,0,0,20.1-1.4c4.8-.6,16.1.6,21.6-.6s17.6-8.6,24.7-10.5,4.3-2.4,4.3-2.4"/><path class="cls-1" d="M186.1,264.4s-5-7.1-3.6-12.5-.3-11.5,1.1-14.5"/><path class="cls-1" d="M182.5,251.9s-4.3,2.6-5.1.9"/></svg>